<svg version="1.1" id="Layer_1" xmlns="http://www.w3.org/2000/svg" xmlns:xlink="http://www.w3.org/1999/xlink" x="0px" y="0px"
	 width="100%" viewBox="0 0 496 496" enable-background="new 0 0 496 496" xml:space="preserve">
<path fill="#000000" opacity="1.000000" stroke="none" 
	d="
M118.002174,153.108673 
	C141.155991,153.264633 163.811874,153.440475 186.468079,153.549088 
	C189.290558,153.562622 192.114075,153.208298 194.938324,153.045456 
	C197.690125,152.886810 199.511398,151.584320 200.750671,149.052444 
	C203.280746,143.883362 207.625626,141.688416 213.326279,141.690460 
	C286.478851,141.716690 359.631409,141.694992 432.783966,141.724930 
	C441.243225,141.728394 446.241180,145.844910 446.957001,154.011459 
	C447.478363,159.959839 447.427612,166.026154 446.922546,171.979736 
	C446.275024,179.612885 442.361786,183.383972 434.244598,185.296783 
	C422.222961,188.129639 410.504456,191.825714 399.464905,197.450607 
	C376.200958,209.304092 357.072815,225.647797 344.557312,248.906662 
	C339.027405,259.183533 335.413330,270.111633 338.039093,281.991394 
	C341.256317,296.547150 352.199280,304.375061 364.302582,310.996490 
	C368.990021,313.560852 374.058105,315.237854 379.069153,317.060974 
	C388.431732,320.467255 391.404999,324.682526 391.398346,334.627869 
	C391.391479,344.947357 392.539062,355.257416 391.527283,365.586304 
	C390.571991,375.338501 385.389496,380.209991 375.571320,380.218140 
	C344.910614,380.243591 314.249939,380.231750 283.589233,380.224091 
	C241.930695,380.213684 200.272141,380.198242 158.613602,380.174683 
	C149.190506,380.169373 142.953354,375.433075 142.207733,366.273773 
	C141.276382,354.833099 141.460831,343.296539 142.185440,331.823914 
	C142.723648,323.302582 147.930878,318.388855 155.774017,315.808655 
	C168.829254,311.513824 181.161026,305.756470 192.099243,297.302185 
	C199.019867,291.953125 204.485352,285.509216 205.654861,276.515259 
	C207.133728,265.142395 201.113037,255.439148 189.906021,249.468063 
	C181.534592,245.007767 172.307632,244.864517 163.330002,243.402573 
	C122.546944,236.761322 86.602974,220.572067 58.123646,189.846390 
	C51.995918,183.235336 46.738808,175.893982 43.347748,167.421036 
	C40.196846,159.548126 43.979446,153.774979 52.537174,153.669037 
	C74.191895,153.400955 95.848503,153.284912 118.002174,153.108673 
z"/>
</svg>